 <svg
                  width="19"
                  height="14"
                  viewBox="0 0 19 14"
                  className="fill-current"
                >
                  <path d="M16.3024 2.26027L17.375 1.0274C17.6855 0.693493 17.7702 0.436644 17.7984 0.308219C16.9516 0.770548 16.1613 0.924658 15.6532 0.924658H15.4556L15.3427 0.821918C14.6653 0.282534 13.8185 0 12.9153 0C10.9395 0 9.3871 1.48973 9.3871 3.21062C9.3871 3.31336 9.3871 3.46747 9.41532 3.57021L9.5 4.0839L8.90726 4.05822C5.29435 3.95548 2.33065 1.13014 1.85081 0.642123C1.06048 1.92637 1.5121 3.15925 1.99194 3.92979L2.95161 5.36815L1.42742 4.5976C1.45565 5.67637 1.90726 6.52397 2.78226 7.14041L3.54435 7.65411L2.78226 7.93665C3.2621 9.24658 4.33468 9.78596 5.125 9.99144L6.16935 10.2483L5.18145 10.8647C3.60081 11.8921 1.625 11.8151 0.75 11.738C2.52823 12.8682 4.64516 13.125 6.1129 13.125C7.21371 13.125 8.03226 13.0223 8.22984 12.9452C16.1331 11.25 16.5 4.82877 16.5 3.54452V3.36473L16.6694 3.26199C17.629 2.44007 18.0242 2.00342 18.25 1.74658C18.1653 1.77226 18.0524 1.82363 17.9395 1.84932L16.3024 2.26027Z" />
                </svg>